P3
3 3
255
174 38 27 174 38 27 174 38 27 
174 38 27 0 0 0 174 38 27 
174 38 27 174 38 27 174 38 27 
